nColumns=19
nRows=65
DataType=double
version=3
OpenSimVersion=4.1
endheader
time	ground_force_calcn_r_vx	ground_force_calcn_r_vy	ground_force_calcn_r_vz	ground_force_calcn_r_px	ground_force_calcn_r_py	ground_force_calcn_r_pz	ground_force_calcn_r_mx	ground_force_calcn_r_my	ground_force_calcn_r_mz	ground_force_calcn_l_vx	ground_force_calcn_l_vy	ground_force_calcn_l_vz	ground_force_calcn_l_px	ground_force_calcn_l_py	ground_force_calcn_l_pz	ground_force_calcn_l_mx	ground_force_calcn_l_my	ground_force_calcn_l_mz
0.11	-33.1842	150.611	-22.0455	1.11614	0	-0.323673	-1.5699	7.12521	-1.04294	0	0	0	0	0	0	0	0	0
0.12	-67.9806	394.282	-26.2221	1.0904	0	-0.323354	-1.28979	7.48066	-0.497507	0	0	0	0	0	0	0	0	0
0.13	-97.3242	756.368	-13.3742	1.06609	0	-0.327589	-0.708379	5.50526	-0.0973446	0	0	0	0	0	0	0	0	0
0.14	-127.391	1121.4	19.7837	1.0424	0	-0.332376	-0.189493	1.66807	0.029428	0	0	0	0	0	0	0	0	0
0.15	-171.337	1368.92	57.8572	1.01929	0	-0.336618	0.324866	-2.59557	-0.109701	0	0	0	0	0	0	0	0	0
0.16	-196.436	1501.09	80.2059	0.99397	0	-0.339989	0.741802	-5.6686	-0.302882	0	0	0	0	0	0	0	0	0
0.17	-194.376	1593.56	81.2993	0.965934	0	-0.340892	0.795194	-6.51927	-0.332597	0	0	0	0	0	0	0	0	0
0.18	-173.095	1667.44	68.6001	0.936838	0	-0.339843	0.519835	-5.00761	-0.206018	0	0	0	0	0	0	0	0	0
0.19	-137.629	1704.11	51.9386	0.907463	0	-0.338647	0.150513	-1.86365	-0.0568008	0	0	0	0	0	0	0	0	0
0.2	-96.2006	1697.6	38.908	0.877921	0	-0.337224	-0.0957351	1.68938	0.0387197	0	0	0	0	0	0	0	0	0
0.21	-49.5666	1649.54	31.1743	0.847813	0	-0.335494	-0.134299	4.46938	0.0844658	0	0	0	0	0	0	0	0	0
0.22	6.15847	1560.73	27.3952	0.815529	0	-0.334234	0.0226592	5.74248	0.100797	0	0	0	0	0	0	0	0	0
0.23	69.9736	1434.88	28.7694	0.780726	0	-0.333636	0.262267	5.37807	0.10783	0	0	0	0	0	0	0	0	0
0.24	133.302	1276.95	35.7403	0.745357	0	-0.333457	0.39785	3.81116	0.10667	0	0	0	0	0	0	0	0	0
0.25	181.299	1089.16	44.0622	0.710943	0	-0.33415	0.305732	1.83669	0.0743039	0	0	0	0	0	0	0	0	0
0.26	204.845	878.204	49.2154	0.676796	0	-0.335831	0.0589315	0.252648	0.0141587	0	0	0	0	0	0	0	0	0
0.27	200.435	659.044	49.6466	0.643183	0	-0.337423	-0.142321	-0.46796	-0.035252	0	0	0	0	0	0	0	0	0
0.28	170.392	450.863	44.6877	0.611431	0	-0.337955	-0.118793	-0.314328	-0.0311549	0	0	0	0	0	0	0	0	0
0.29	124.505	274.259	34.6736	0.581913	0	-0.336999	0.159058	0.350371	0.0442962	0	0	0	0	0	0	0	0	0
0.3	76.2085	143.944	22.7234	0.555855	0	-0.332078	0.545972	1.03124	0.162795	0	0	0	0	0	0	0	0	0
0.31	36.4059	62.9353	12.6991	0.553228	0	-0.3132	0.799313	1.38178	0.278817	0	0	0	0	0	0	0	0	0
0.32	0	0	0	0	0	0	0	0	0	0	0	0	0	0	0	0	0	0
0.33	0	0	0	0	0	0	0	0	0	0	0	0	0	0	0	0	0	0
0.34	0	0	0	0	0	0	0	0	0	0	0	0	0	0	0	0	0	0
0.35	0	0	0	0	0	0	0	0	0	0	0	0	0	0	0	0	0	0
0.36	0	0	0	0	0	0	0	0	0	0	0	0	0	0	0	0	0	0
0.37	0	0	0	0	0	0	0	0	0	0	0	0	0	0	0	0	0	0
0.38	0	0	0	0	0	0	0	0	0	0	0	0	0	0	0	0	0	0
0.39	0	0	0	0	0	0	0	0	0	0	0	0	0	0	0	0	0	0
0.4	0	0	0	0	0	0	0	0	0	0	0	0	0	0	0	0	0	0
0.41	0	0	0	0	0	0	0	0	0	0	0	0	0	0	0	0	0	0
0.42	0	0	0	0	0	0	0	0	0	0	0	0	0	0	0	0	0	0
0.43	0	0	0	0	0	0	0	0	0	0	0	0	0	0	0	0	0	0
0.44	0	0	0	0	0	0	0	0	0	-48.3811	142.797	8.43631	1.08196	0	-0.363673	0.522165	-1.54117	-0.0910509
0.45	0	0	0	0	0	0	0	0	0	-94.317	367.998	17.8255	1.07399	0	-0.356592	0.525092	-2.04876	-0.09924
0.46	0	0	0	0	0	0	0	0	0	-114.354	693.673	23.8458	1.05524	0	-0.348361	0.267393	-1.62202	-0.0557588
0.47	0	0	0	0	0	0	0	0	0	-112.666	1005.53	15.3236	1.03017	0	-0.343371	0.0118824	-0.106049	-0.00161611
0.48	0	0	0	0	0	0	0	0	0	-133.864	1202.51	-5.96056	1.00494	0	-0.341744	-0.215823	1.93874	-0.00960995
0.49	0	0	0	0	0	0	0	0	0	-164.91	1312.41	-23.2515	0.97915	0	-0.340683	-0.450022	3.58142	-0.0634508
0.5	0	0	0	0	0	0	0	0	0	-175.248	1412.7	-24.8729	0.949815	0	-0.339349	-0.508416	4.09844	-0.0721594
0.51	0	0	0	0	0	0	0	0	0	-156.62	1516.85	-15.4479	0.917294	0	-0.33883	-0.3428	3.32	-0.0338115
0.52	0	0	0	0	0	0	0	0	0	-117.118	1595.22	-5.31145	0.883774	0	-0.339051	-0.122258	1.66522	-0.00554453
0.53	0	0	0	0	0	0	0	0	0	-66.0522	1629.54	0.274246	0.849943	0	-0.339047	0.00316583	-0.0781027	-1.31444e-05
0.54	0	0	0	0	0	0	0	0	0	-7.77099	1617.41	0.116422	0.815462	0	-0.338618	0.00548096	-1.14078	-8.21135e-05
0.55	0	0	0	0	0	0	0	0	0	55.8413	1563.4	-5.64932	0.78	0	-0.337906	-0.0389134	-1.08947	0.00393677
0.56	0	0	0	0	0	0	0	0	0	120.181	1470.83	-15.0835	0.744505	0	-0.336596	0.00346159	0.0423647	-0.000434455
0.57	0	0	0	0	0	0	0	0	0	178.384	1337.56	-25.4617	0.709563	0	-0.334466	0.242131	1.81554	-0.0345607
0.58	0	0	0	0	0	0	0	0	0	222.833	1162.19	-34.9286	0.674628	0	-0.331936	0.687403	3.58517	-0.107749
0.59	0	0	0	0	0	0	0	0	0	244.782	952.016	-41.5392	0.640468	0	-0.329348	1.22169	4.75145	-0.207319
0.6	0	0	0	0	0	0	0	0	0	239.097	724.542	-43.3195	0.609017	0	-0.326413	1.64159	4.97455	-0.297423
0.61	0	0	0	0	0	0	0	0	0	206.911	501.949	-40.2564	0.57962	0	-0.323621	1.76059	4.27104	-0.342538
0.62	0	0	0	0	0	0	0	0	0	156.022	308.671	-33.4949	0.54977	0	-0.322304	1.50102	2.96959	-0.322239
0.63	0	0	0	0	0	0	0	0	0	99.317	165.458	-23.9425	0.522665	0	-0.322127	0.938341	1.56324	-0.226208
0.64	0	0	0	0	0	0	0	0	0	50.3251	76.2439	-13.5958	0.515767	0	-0.319963	0.296559	0.449295	-0.0801184
0.65	0	0	0	0	0	0	0	0	0	0	0	0	0	0	0	0	0	0
0.66	0	0	0	0	0	0	0	0	0	0	0	0	0	0	0	0	0	0
0.67	0	0	0	0	0	0	0	0	0	0	0	0	0	0	0	0	0	0
0.68	0	0	0	0	0	0	0	0	0	0	0	0	0	0	0	0	0	0
0.69	0	0	0	0	0	0	0	0	0	0	0	0	0	0	0	0	0	0
0.7	0	0	0	0	0	0	0	0	0	0	0	0	0	0	0	0	0	0
0.71	0	0	0	0	0	0	0	0	0	0	0	0	0	0	0	0	0	0
0.72	0	0	0	0	0	0	0	0	0	0	0	0	0	0	0	0	0	0
0.73	0	0	0	0	0	0	0	0	0	0	0	0	0	0	0	0	0	0
0.74	0	0	0	0	0	0	0	0	0	0	0	0	0	0	0	0	0	0
0.75	0	0	0	0	0	0	0	0	0	0	0	0	0	0	0	0	0	0
